PathFileType	4	(X/Y/Z)	E:\Qualisys_Data\Carbon_Farble_Plate\Data\Amateur_Runner\S2\T2\S2T2V23_c3d.trc
DataRate	CameraRate	NumFrames	NumMarkers	Units	OrigDataRate	OrigDataStartFrame	OrigNumFrames
200.000000	200.000000	4	39	mm	200.000000	0	306
Frame#	Time	LSHO			RSHO			LICST			RICST			LASIS			LHEEL			RASIS			LTROC			RTROC			SACR			LTH1			LSK4			LTH2			LTH3			RHM5			LSK2			LTH4			RTH1			LTOE			RTH2			RTH3			RTH4			LLEP			RLEP			LSK1			LSK3			RSK1			LHM5			RSK2			LFT1			RSK3			RSK4			LLME			RLME			RTOE			RHEEL			RFT1			RFT2			LFT2			
		X1	Y1	Z1	X2	Y2	Z2	X3	Y3	Z3	X4	Y4	Z4	X5	Y5	Z5	X6	Y6	Z6	X7	Y7	Z7	X8	Y8	Z8	X9	Y9	Z9	X10	Y10	Z10	X11	Y11	Z11	X12	Y12	Z12	X13	Y13	Z13	X14	Y14	Z14	X15	Y15	Z15	X16	Y16	Z16	X17	Y17	Z17	X18	Y18	Z18	X19	Y19	Z19	X20	Y20	Z20	X21	Y21	Z21	X22	Y22	Z22	X23	Y23	Z23	X24	Y24	Z24	X25	Y25	Z25	X26	Y26	Z26	X27	Y27	Z27	X28	Y28	Z28	X29	Y29	Z29	X30	Y30	Z30	X31	Y31	Z31	X32	Y32	Z32	X33	Y33	Z33	X34	Y34	Z34	X35	Y35	Z35	X36	Y36	Z36	X37	Y37	Z37	X38	Y38	Z38	X39	Y39	Z39	

1	0	-3221.604736328125	1524.930419921875	-448.2154235839844	-3258.53955078125	1508.66796875	-152.1127624511719	-3273.947265625	1049.65771484375	-444.01611328125	-3265.968505859375	1049.602416992188	-147.0440521240234	-3230.287109375	992.4046630859375	-431.6231689453125	-3844.09375	425.4046936035156	-318.2075500488281	-3211.76513671875	999.2992553710938	-177.1642761230469	-3386.535400390625	959.3900756835938	-442.1078186035156	-3339.306640625	952.8928833007812	-127.5175170898438	-3365.350341796875	1097.354370117188	-299.9457397460938	-3382.749267578125	704.7429809570312	-449.1878662109375	-3721.578125	507.7200622558594	-409.8956909179688	-3455.906982421875	743.4974365234375	-440.9264526367188	-3429.19677734375	614.3785400390625	-430.5671997070312	-3011.80419921875	166.4089508056641	-142.3989868164062	-3639.090576171875	562.755615234375	-426.9994506835938	-3502.43798828125	655.9976806640625	-417.3407287597656	-3105.40380859375	751.9622802734375	-144.6824798583984	-3851.289794921875	176.4840240478516	-349.2537536621094	-3174.16357421875	715.805908203125	-139.5184020996094	-3060.2939453125	663.6820068359375	-167.7691955566406	-3132.48095703125	628.3987426757812	-155.3241119384766	-3499.717529296875	596.0582275390625	-425.5007629394531	-3095.2236328125	604.5615844726562	-157.5406799316406	-3596.31884765625	498.0101928710938	-431.0502624511719	-3679.91455078125	442.8594665527344	-421.81982421875	-3065.504638671875	479.8693237304688	-149.1291351318359	-3888.530029296875	233.2982940673828	-394.1956787109375	-3146.571533203125	488.5265197753906	-144.1324462890625	-3862.807861328125	411.4955444335938	-287.512939453125	-3076.58056640625	378.3716430664062	-157.4095458984375	-3154.82568359375	389.8875427246094	-152.5678405761719	-3842.65966796875	369.3443603515625	-382.2346496582031	-3127.17919921875	193.2716979980469	-178.5194549560547	-2940.155517578125	198.0265350341797	-196.1213684082031	-3188.6337890625	165.771240234375	-240.2241668701172	-3162.525390625	140.8674621582031	-265.9698486328125	-3183.021728515625	136.9039764404297	-213.92626953125	-3877.6015625	417.9442749023438	-336.08642578125
2	0.005	-3197.9794921875	1525.0	-447.4385986328125	-3236.927734375	1508.374267578125	-151.4937133789062	-3252.55126953125	1050.294799804688	-445.0476379394531	-3245.47265625	1049.863403320312	-148.0601959228516	-3208.047607421875	992.2486572265624	-431.5826416015625	-3829.610595703125	436.2316589355469	-317.9106140136719	-3191.293701171875	998.4297485351562	-177.9870910644531	-3364.63232421875	958.6588134765624	-443.2588195800781	-3317.892333984375	951.8370361328124	-128.0214691162109	-3342.44677734375	1097.057983398438	-300.2253112792969	-3359.1865234375	704.0501098632812	-448.8245849609375	-3699.8623046875	513.572509765625	-409.9195861816406	-3432.24609375	742.3975219726562	-441.8871459960938	-3405.43115234375	613.3616943359375	-430.9556884765625	-2973.273681640625	166.8241577148438	-145.05517578125	-3616.512451171875	566.4156494140625	-427.6199645996094	-3478.50244140625	655.0053100585938	-418.2075500488281	-3086.849609375	748.1317138671875	-144.8711395263672	-3840.43017578125	189.0685119628906	-352.6773986816406	-3155.291259765625	713.4590454101562	-139.7107238769531	-3043.360595703125	659.5172119140625	-168.115478515625	-3116.768310546875	625.2425537109375	-156.0155639648438	-3475.584716796875	595.661376953125	-426.32177734375	-3078.23974609375	600.5211181640625	-157.5958404541016	-3575.72705078125	500.4320068359375	-431.8669128417969	-3660.98291015625	447.6266479492188	-420.4335021972656	-3043.45556640625	476.6253662109375	-150.7569274902344	-3874.3525390625	247.1387481689453	-396.6182250976562	-3123.935546875	481.5642700195312	-142.1259765625	-3846.2197265625	421.9590148925781	-287.3499755859375	-3048.636962890625	375.4351501464844	-158.3090515136719	-3128.33740234375	382.3956298828125	-151.720458984375	-3826.070068359375	380.4008483886719	-381.6153564453125	-3091.197021484375	187.9692840576172	-179.4461517333984	-2905.151611328125	203.0792236328125	-200.0577087402344	-3150.963134765625	156.8282623291016	-240.7169036865234	-3123.7998046875	133.9235076904297	-267.0647888183594	-3143.034423828125	128.0569610595703	-213.7596130371094	-3860.621337890625	430.3768920898438	-336.2085876464844
3	0.01	-3174.978271484375	1524.932495117188	-446.2957458496094	-3216.40966796875	1507.432250976562	-150.7243499755859	-3231.151611328125	1050.55615234375	-445.267822265625	-3225.9697265625	1049.480590820312	-147.6963653564453	-3186.33935546875	992.5095825195312	-432.4189453125	-3812.79931640625	447.0374755859375	-319.0770263671875	-3170.59765625	998.1113891601562	-178.3105773925781	-3342.62255859375	957.81591796875	-444.537353515625	-3298.4833984375	950.897705078125	-129.3135833740234	-3321.279052734375	1096.514404296875	-300.8294677734375	-3334.845703125	703.1063232421875	-448.4683837890625	-3678.734130859375	520.4637451171875	-410.3615112304688	-3408.5517578125	741.0473022460938	-442.9128112792969	-3380.981689453125	612.1664428710938	-430.5565490722656	-2936.240478515625	167.4908294677734	-148.3108825683594	-3593.671875	570.0208129882812	-428.328857421875	-3454.126220703125	653.4256591796875	-419.8816528320312	-3067.3955078125	743.8197021484375	-144.7476196289062	-3828.143798828125	198.5016021728516	-355.9561462402344	-3136.3203125	710.5249633789062	-138.8915100097656	-3026.15576171875	654.2713012695312	-168.0351409912109	-3097.428466796875	622.7671508789062	-155.4526672363281	-3451.89208984375	594.7398071289062	-426.8988342285156	-3060.881103515625	596.224609375	-158.2798461914062	-3555.2216796875	502.4084777832031	-432.3713989257812	-3641.03662109375	452.0081481933594	-419.7358703613281	-3021.557373046875	473.7638244628906	-151.3291320800781	-3860.27001953125	259.1390686035156	-398.37744140625	-3100.603759765625	473.5188293457031	-140.1872406005859	-3827.64111328125	433.4978942871094	-286.2426452636719	-3022.515625	371.8194274902344	-159.6558837890625	-3101.8544921875	375.0421752929688	-150.9823303222656	-3809.185791015625	391.6839294433594	-381.5521850585938	-3057.044921875	182.9694213867188	-181.0591430664062	-2870.888671875	208.9246368408203	-203.6529998779297	-3113.226806640625	149.9673156738281	-239.1056823730469	-3086.43505859375	127.3418960571289	-267.6720275878906	-3104.46044921875	119.4064254760742	-215.0961151123047	-3843.469970703125	440.7073974609375	-335.3135070800781
4	0.015	-3152.0185546875	1524.373779296875	-445.5082092285156	-3194.636474609375	1506.53369140625	-149.5279998779297	-3209.728515625	1050.145629882812	-445.7251281738281	-3204.492431640625	1048.219970703125	-148.9572601318359	-3164.740234375	992.2875366210938	-432.9100952148438	-3794.088623046875	457.2589111328125	-320.5677185058594	-3150.423828125	996.78173828125	-178.8208465576172	-3320.952880859375	956.6015014648438	-445.4305114746094	-3277.61279296875	948.663818359375	-130.3690795898438	-3300.084716796875	1095.575317382812	-301.1326904296875	-3311.040283203125	701.749755859375	-448.6644897460938	-3656.368896484375	525.508544921875	-410.5051574707031	-3384.91650390625	739.4909057617188	-444.4817199707031	-3357.259521484375	610.9635009765625	-431.6188659667969	-2899.95556640625	168.9805908203125	-150.9232177734375	-3570.33447265625	573.0569458007812	-428.8222045898438	-3430.69921875	652.1757202148438	-421.0599365234375	-3048.30712890625	739.2238159179688	-144.5509033203125	-3814.716796875	210.5166473388672	-358.6149291992188	-3118.29638671875	706.668701171875	-137.9527893066406	-3007.891357421875	648.6973266601562	-167.9239807128906	-3081.212158203125	617.9609985351562	-155.4081115722656	-3428.073974609375	593.382568359375	-427.9522705078125	-3044.194580078125	591.3626708984375	-158.1109619140625	-3533.3466796875	502.976806640625	-433.3612365722656	-3623.116455078125	457.3290100097656	-421.0698852539062	-3000.047119140625	470.2116394042969	-152.0331420898438	-3846.2470703125	272.0147705078125	-400.4706726074219	-3078.690185546875	466.7847900390625	-138.2618560791016	-3808.366943359375	442.8408203125	-285.0632629394531	-2995.75732421875	369.0344543457031	-160.6273498535156	-3075.030517578125	368.7524108886719	-149.6251068115234	-3790.736083984375	402.8966979980469	-381.1418151855469	-3022.239990234375	178.7483673095703	-182.2378082275391	-2838.963134765625	214.1681518554688	-207.12939453125	-3078.43408203125	143.2130432128906	-239.7511444091797	-3050.79443359375	122.1168518066406	-269.5263061523438	-3068.068359375	113.6339340209961	-216.2803802490234	-3820.974853515625	453.8108215332031	-332.191650390625
